<?xml version="1.0" standalone="no"?>
<!DOCTYPE svg PUBLIC "-//W3C//DTD SVG 20010904//EN"
 "http://www.w3.org/TR/2001/REC-SVG-20010904/DTD/svg10.dtd">
<svg version="1.0" xmlns="http://www.w3.org/2000/svg"
 width="294.000000pt" height="294.000000pt" viewBox="0 0 294.000000 294.000000"
 preserveAspectRatio="xMidYMid meet">
<metadata>
Created by potrace 1.14, written by Peter Selinger 2001-2017
</metadata>
<g transform="translate(0.000000,294.000000) scale(0.100000,-0.100000)"
fill="#000000" stroke="none">
<path d="M925 2395 c-110 -24 -227 -78 -343 -158 -89 -61 -172 -149 -172 -183
0 -13 3 -24 7 -24 3 0 36 26 72 58 152 133 237 189 335 217 75 22 172 16 243
-15 61 -26 136 -101 163 -163 91 -206 13 -611 -200 -1042 -136 -276 -250 -405
-358 -405 -87 0 -112 36 -112 167 0 190 81 364 236 514 93 89 220 164 312 184
37 8 53 32 31 47 -25 17 -179 2 -269 -27 -306 -98 -540 -293 -635 -530 -24
-59 -29 -85 -29 -165 -1 -81 3 -102 23 -143 50 -102 155 -143 348 -135 132 6
202 26 331 97 371 204 692 732 709 1167 8 175 -25 276 -126 386 -122 133 -362
198 -566 153z"/>
<path d="M2442 1580 c-94 -43 -221 -160 -326 -302 -31 -43 -59 -78 -61 -78 -4
0 64 149 117 255 20 39 39 80 42 93 l7 22 -173 0 -174 0 -177 -468 c-97 -258
-177 -472 -177 -475 0 -4 72 -7 160 -7 157 0 161 0 170 23 5 12 26 65 46 117
53 138 154 346 209 431 64 100 140 177 188 190 51 14 97 3 97 -22 0 -38 33
-100 61 -114 36 -19 122 -19 158 -1 39 21 87 77 101 121 7 21 10 62 8 91 -5
58 -34 101 -90 130 -39 20 -135 17 -186 -6z"/>
</g>
</svg>
