<svg xmlns="http://www.w3.org/2000/svg" xmlns:xlink="http://www.w3.org/1999/xlink" version="1.1" id="Layer_1" x="0" y="0" viewBox="-155 383.3 300 235.7" xml:space="preserve" enable-background="new -155 383.3 687.5 235.7">
<path fill="#FFFFFF" d="M81.6 506.8c0-19.8-12.3-37.2-30.8-43.9 0.8-4.2 1.2-8.4 1.2-12.7 0-36.9-30-66.9-66.8-66.9 -21.6 0-41.6 10.3-54.2 27.7 -6.2-4.8-13.8-7.4-21.7-7.4 -19.6 0-35.5 15.9-35.5 35.5 0 4.3 0.8 8.5 2.2 12.4 -18.4 6.6-31 24.3-31 44 0 19.9 12.4 37.3 30.9 44 -0.8 4.1-1.2 8.4-1.2 12.7 0 36.8 29.9 66.7 66.7 66.7 21.6 0 41.6-10.4 54.1-27.8 6.2 4.9 13.8 7.6 21.7 7.6 19.6 0 35.5-15.9 35.5-35.5 0-4.3-0.8-8.5-2.2-12.4C68.9 544.2 81.6 526.5 81.6 506.8"/><path fill="#FED10A" d="M-62 484.8l51.8 23.6L42 462.6c0.8-3.8 1.1-7.5 1.1-11.5 0-32.2-26.2-58.4-58.4-58.4 -19.3 0-37.2 9.5-48.1 25.4l-8.7 45.1L-62 484.8z"/><path fill="#24BBB1" d="M-115.6 539.6c-0.8 3.8-1.1 7.7-1.1 11.7 0 32.3 26.3 58.5 58.6 58.5 19.4 0 37.5-9.6 48.4-25.6l8.6-44.9 -11.5-22 -52-23.7L-115.6 539.6z"/><path fill="#EF5098" d="M-115.9 450l35.5 8.4 7.8-40.3c-4.8-3.7-10.8-5.7-17-5.7 -15.4 0-28 12.5-28 28C-117.6 443.7-117 447-115.9 450"/><path fill="#17A8E0" d="M-119 458.5c-15.8 5.2-26.9 20.4-26.9 37.1 0 16.3 10.1 30.8 25.2 36.6l49.8-45 -9.1-19.5L-119 458.5z"/><path fill="#93C83E" d="M-0.7 584.2c4.9 3.7 10.8 5.8 16.9 5.8 15.4 0 28-12.5 28-28 0-3.4-0.6-6.7-1.7-9.7L7.1 544 -0.7 584.2z"/><path fill="#0779A1" d="M6.5 534.7l39 9.1c15.9-5.2 26.9-20.4 26.9-37.2 0-16.2-10.1-30.8-25.2-36.5l-51 44.7L6.5 534.7z"/>
<div xmlns="http://www.w3.org/1999/xhtml"></div></svg>
